<mxfile host="" modified="2020-07-07T03:48:22.357Z" agent="5.0 (Macintosh; Intel Mac OS X 10_15_5) AppleWebKit/537.36 (KHTML, like Gecko) Code/1.46.1 Chrome/78.0.3904.130 Electron/7.3.1 Safari/537.36" etag="tC89KeaXq8EHtHuo17Zl" version="13.1.3">
    <diagram id="6hGFLwfOUW9BJ-s0fimq" name="Page-1">
        <mxGraphModel dx="915" dy="830" grid="1" gridSize="10" guides="1" tooltips="1" connect="1" arrows="1" fold="1" page="1" pageScale="1" pageWidth="827" pageHeight="1169" math="0" shadow="0">
            <root>
                <mxCell id="0"/>
                <mxCell id="1" parent="0"/>
                <mxCell id="2" value="Enterprise&lt;br&gt;Data Centre" style="shape=step;perimeter=stepPerimeter;whiteSpace=wrap;html=1;fixedSize=1;" parent="1" vertex="1">
                    <mxGeometry x="50" y="160" width="180" height="80" as="geometry"/>
                </mxCell>
                <mxCell id="3" value="Co-location" style="shape=step;perimeter=stepPerimeter;whiteSpace=wrap;html=1;fixedSize=1;" parent="1" vertex="1">
                    <mxGeometry x="240" y="160" width="180" height="80" as="geometry"/>
                </mxCell>
                <mxCell id="4" value="Private Cloud" style="shape=step;perimeter=stepPerimeter;whiteSpace=wrap;html=1;fixedSize=1;" parent="1" vertex="1">
                    <mxGeometry x="430" y="160" width="180" height="80" as="geometry"/>
                </mxCell>
                <mxCell id="5" value="Public Cloud" style="shape=step;perimeter=stepPerimeter;whiteSpace=wrap;html=1;fixedSize=1;" parent="1" vertex="1">
                    <mxGeometry x="620" y="160" width="180" height="80" as="geometry"/>
                </mxCell>
                <mxCell id="6" value="Hardware" style="text;html=1;strokeColor=none;fillColor=none;align=left;verticalAlign=middle;whiteSpace=wrap;rounded=0;fontSize=14;" parent="1" vertex="1">
                    <mxGeometry x="50" y="130" width="40" height="20" as="geometry"/>
                </mxCell>
                <mxCell id="7" value="Physical Server" style="shape=step;perimeter=stepPerimeter;whiteSpace=wrap;html=1;fixedSize=1;" parent="1" vertex="1">
                    <mxGeometry x="50" y="300" width="180" height="80" as="geometry"/>
                </mxCell>
                <mxCell id="8" value="Virtual Machines" style="shape=step;perimeter=stepPerimeter;whiteSpace=wrap;html=1;fixedSize=1;" parent="1" vertex="1">
                    <mxGeometry x="240" y="300" width="180" height="80" as="geometry"/>
                </mxCell>
                <mxCell id="9" value="Containers" style="shape=step;perimeter=stepPerimeter;whiteSpace=wrap;html=1;fixedSize=1;" parent="1" vertex="1">
                    <mxGeometry x="430" y="300" width="180" height="80" as="geometry"/>
                </mxCell>
                <mxCell id="10" value="Functions" style="shape=step;perimeter=stepPerimeter;whiteSpace=wrap;html=1;fixedSize=1;" parent="1" vertex="1">
                    <mxGeometry x="620" y="300" width="180" height="80" as="geometry"/>
                </mxCell>
                <mxCell id="11" value="Units of Compute" style="text;html=1;strokeColor=none;fillColor=none;align=left;verticalAlign=middle;whiteSpace=wrap;rounded=0;fontSize=14;" parent="1" vertex="1">
                    <mxGeometry x="50" y="270" width="130" height="20" as="geometry"/>
                </mxCell>
                <mxCell id="12" value="Monolith" style="shape=step;perimeter=stepPerimeter;whiteSpace=wrap;html=1;fixedSize=1;" parent="1" vertex="1">
                    <mxGeometry x="50" y="450" width="180" height="80" as="geometry"/>
                </mxCell>
                <mxCell id="13" value="N-TIer" style="shape=step;perimeter=stepPerimeter;whiteSpace=wrap;html=1;fixedSize=1;" parent="1" vertex="1">
                    <mxGeometry x="240" y="450" width="180" height="80" as="geometry"/>
                </mxCell>
                <mxCell id="14" value="Microservices" style="shape=step;perimeter=stepPerimeter;whiteSpace=wrap;html=1;fixedSize=1;" parent="1" vertex="1">
                    <mxGeometry x="430" y="450" width="180" height="80" as="geometry"/>
                </mxCell>
                <mxCell id="15" value="Nanoservices" style="shape=step;perimeter=stepPerimeter;whiteSpace=wrap;html=1;fixedSize=1;" parent="1" vertex="1">
                    <mxGeometry x="620" y="450" width="180" height="80" as="geometry"/>
                </mxCell>
                <mxCell id="16" value="Software Architecture" style="text;html=1;strokeColor=none;fillColor=none;align=left;verticalAlign=middle;whiteSpace=wrap;rounded=0;fontSize=14;" parent="1" vertex="1">
                    <mxGeometry x="50" y="420" width="160" height="20" as="geometry"/>
                </mxCell>
                <mxCell id="17" value="NOT TIGHTLY LINKED" style="text;html=1;strokeColor=none;fillColor=none;align=center;verticalAlign=middle;whiteSpace=wrap;rounded=0;fontSize=23;" vertex="1" parent="1">
                    <mxGeometry x="180" y="240" width="460" height="50" as="geometry"/>
                </mxCell>
                <mxCell id="18" value="NOT TIGHTLY LINKED" style="text;html=1;strokeColor=none;fillColor=none;align=center;verticalAlign=middle;whiteSpace=wrap;rounded=0;fontSize=23;" vertex="1" parent="1">
                    <mxGeometry x="200" y="390" width="460" height="50" as="geometry"/>
                </mxCell>
            </root>
        </mxGraphModel>
    </diagram>
</mxfile>